<svg xmlns="http://www.w3.org/2000/svg" width="1200" height="640" viewBox="0 0 1200 640" role="img" aria-labelledby="title"><title id="title">FOGFALL brand sheet: wordmark, feature icons, palette and typography</title><rect width="1200" height="640" fill="#000000"/><g transform="translate(48 32) scale(.85)"><g transform="translate(0 0)"><path d="M166 83 A71 71 0 1 1 111 27" fill="none" stroke="#80e8ff" stroke-width="9"/><path d="M113 47H137L79 143H55Z" fill="#ffd278"/></g><path fill="#effcff" transform="translate(204.000 145) scale(0.148000 -0.148000)" d="M85 0V690H549V579H207V383H519V272H207V0Z"/><path fill="#effcff" transform="translate(289.692 145) scale(0.148000 -0.148000)" d="M75 163V527Q75 690 238 690H467Q630 690 630 527V163Q630 0 467 0H238Q75 0 75 163ZM197 154Q197 111 241 111H464Q508 111 508 154V536Q508 579 464 579H241Q197 579 197 536Z"/><path fill="#effcff" transform="translate(394.032 145) scale(0.148000 -0.148000)" d="M75 163V527Q75 690 238 690H531L590 644V579H241Q197 579 197 536V154Q197 111 241 111H488V302H342V413H610V0H238Q75 0 75 163Z"/><path fill="#80e8ff" transform="translate(493.932 145) scale(0.148000 -0.148000)" d="M85 0V690H549V579H207V383H519V272H207V0Z"/><path fill="#80e8ff" transform="translate(579.624 145) scale(0.148000 -0.148000)" d="M19 24 232 690H422L634 24L619 0H516L469 152H184L136 0H35ZM218 263H436L336 579H317Z"/><path fill="#80e8ff" transform="translate(676.268 145) scale(0.148000 -0.148000)" d="M85 0V690H207V111H519V0Z"/><path fill="#80e8ff" transform="translate(756.632 145) scale(0.148000 -0.148000)" d="M85 0V690H207V111H519V0Z"/></g><path fill="#9ab8c3" transform="translate(52.000 238) scale(0.024000 -0.024000)" d="M296 -12Q241 -12 189.0 5.0Q137 22 97.5 57.0Q58 92 40 146L127 172Q139 136 166.0 112.5Q193 89 228.5 78.0Q264 67 300 67Q340 67 376.0 80.0Q412 93 434.5 119.5Q457 146 457 186Q457 227 427.0 251.0Q397 275 323 294L238 313Q192 325 147.5 345.0Q103 365 74.5 402.0Q46 439 46 501Q46 558 81.5 598.0Q117 638 173.5 659.0Q230 680 291 680Q338 680 383.5 666.5Q429 653 465.5 625.5Q502 598 523 555L437 530Q418 565 375.5 583.0Q333 601 287 601Q251 601 218.0 589.5Q185 578 164.0 555.0Q143 532 143 497Q143 464 162.5 444.0Q182 424 214.5 412.5Q247 401 286 392L359 376Q410 364 455.0 343.0Q500 322 528.0 284.0Q556 246 556 182Q556 136 534.0 99.5Q512 63 475.0 38.5Q438 14 391.5 1.0Q345 -12 296 -12Z"/><path fill="#9ab8c3" transform="translate(66.304 238) scale(0.024000 -0.024000)" d="M10 0 261 669H366L616 0H516L465 146H161L110 0ZM190 227H436L313 574Z"/><path fill="#9ab8c3" transform="translate(81.328 238) scale(0.024000 -0.024000)" d="M76 0V668H215L519 100V668H613V0H475L170 571V0Z"/><path fill="#9ab8c3" transform="translate(97.864 238) scale(0.024000 -0.024000)" d=""/><path fill="#9ab8c3" transform="translate(104.584 238) scale(0.024000 -0.024000)" d="M76 0V668H510V587H170V384H510V303H170V0Z"/><path fill="#9ab8c3" transform="translate(117.736 238) scale(0.024000 -0.024000)" d="M76 0V668H288Q370 668 432.5 653.5Q495 639 530.5 597.5Q566 556 566 476Q566 431 552.0 392.0Q538 353 498.5 326.0Q459 299 381 288L588 0H473L270 281H170V0ZM170 360H295Q344 360 383.5 367.0Q423 374 446.5 398.5Q470 423 470 474Q470 526 446.5 550.0Q423 574 383.5 581.5Q344 589 295 589H170Z"/><path fill="#9ab8c3" transform="translate(132.568 238) scale(0.024000 -0.024000)" d="M10 0 261 669H366L616 0H516L465 146H161L110 0ZM190 227H436L313 574Z"/><path fill="#9ab8c3" transform="translate(147.592 238) scale(0.024000 -0.024000)" d="M76 0V668H215L519 100V668H613V0H475L170 571V0Z"/><path fill="#9ab8c3" transform="translate(164.128 238) scale(0.024000 -0.024000)" d="M353 -12Q258 -12 190.0 32.5Q122 77 86.0 155.0Q50 233 50 335Q50 439 88.5 516.5Q127 594 197.0 637.0Q267 680 361 680Q445 680 512.5 641.0Q580 602 614 529L532 499Q510 544 465.5 572.5Q421 601 356 601Q297 601 249.5 571.0Q202 541 174.0 481.5Q146 422 146 335Q146 251 173.0 191.0Q200 131 248.5 99.0Q297 67 359 67Q424 67 468.5 95.0Q513 123 536 169L618 139Q582 65 512.0 26.5Q442 -12 353 -12Z"/><path fill="#9ab8c3" transform="translate(179.872 238) scale(0.024000 -0.024000)" d="M66 0V74H160V594H66V668H348V594H254V74H348V0Z"/><path fill="#9ab8c3" transform="translate(189.808 238) scale(0.024000 -0.024000)" d="M296 -12Q241 -12 189.0 5.0Q137 22 97.5 57.0Q58 92 40 146L127 172Q139 136 166.0 112.5Q193 89 228.5 78.0Q264 67 300 67Q340 67 376.0 80.0Q412 93 434.5 119.5Q457 146 457 186Q457 227 427.0 251.0Q397 275 323 294L238 313Q192 325 147.5 345.0Q103 365 74.5 402.0Q46 439 46 501Q46 558 81.5 598.0Q117 638 173.5 659.0Q230 680 291 680Q338 680 383.5 666.5Q429 653 465.5 625.5Q502 598 523 555L437 530Q418 565 375.5 583.0Q333 601 287 601Q251 601 218.0 589.5Q185 578 164.0 555.0Q143 532 143 497Q143 464 162.5 444.0Q182 424 214.5 412.5Q247 401 286 392L359 376Q410 364 455.0 343.0Q500 322 528.0 284.0Q556 246 556 182Q556 136 534.0 99.5Q512 63 475.0 38.5Q438 14 391.5 1.0Q345 -12 296 -12Z"/><path fill="#9ab8c3" transform="translate(204.112 238) scale(0.024000 -0.024000)" d="M353 -12Q258 -12 190.0 32.5Q122 77 86.0 155.0Q50 233 50 335Q50 439 88.5 516.5Q127 594 197.0 637.0Q267 680 361 680Q445 680 512.5 641.0Q580 602 614 529L532 499Q510 544 465.5 572.5Q421 601 356 601Q297 601 249.5 571.0Q202 541 174.0 481.5Q146 422 146 335Q146 251 173.0 191.0Q200 131 248.5 99.0Q297 67 359 67Q424 67 468.5 95.0Q513 123 536 169L618 139Q582 65 512.0 26.5Q442 -12 353 -12Z"/><path fill="#9ab8c3" transform="translate(219.856 238) scale(0.024000 -0.024000)" d="M363 -12Q267 -12 197.0 32.5Q127 77 88.5 155.5Q50 234 50 335Q50 436 88.5 513.5Q127 591 197.0 635.5Q267 680 363 680Q460 680 530.0 635.5Q600 591 638.5 513.5Q677 436 677 335Q677 234 638.5 155.5Q600 77 530.0 32.5Q460 -12 363 -12ZM363 67Q424 67 473.5 98.0Q523 129 552.0 188.5Q581 248 581 335Q581 421 552.0 480.5Q523 540 473.5 570.5Q424 601 363 601Q303 601 253.5 570.5Q204 540 175.0 480.5Q146 421 146 335Q146 248 175.0 188.5Q204 129 253.5 98.0Q303 67 363 67Z"/><path fill="#9ab8c3" transform="translate(237.304 238) scale(0.024000 -0.024000)" d=""/><path fill="#9ab8c3" transform="translate(244.024 238) scale(0.024000 -0.024000)" d="M15 0 275 668H362L102 0Z"/><path fill="#9ab8c3" transform="translate(253.072 238) scale(0.024000 -0.024000)" d=""/><path fill="#9ab8c3" transform="translate(259.792 238) scale(0.024000 -0.024000)" d="M296 -12Q241 -12 189.0 5.0Q137 22 97.5 57.0Q58 92 40 146L127 172Q139 136 166.0 112.5Q193 89 228.5 78.0Q264 67 300 67Q340 67 376.0 80.0Q412 93 434.5 119.5Q457 146 457 186Q457 227 427.0 251.0Q397 275 323 294L238 313Q192 325 147.5 345.0Q103 365 74.5 402.0Q46 439 46 501Q46 558 81.5 598.0Q117 638 173.5 659.0Q230 680 291 680Q338 680 383.5 666.5Q429 653 465.5 625.5Q502 598 523 555L437 530Q418 565 375.5 583.0Q333 601 287 601Q251 601 218.0 589.5Q185 578 164.0 555.0Q143 532 143 497Q143 464 162.5 444.0Q182 424 214.5 412.5Q247 401 286 392L359 376Q410 364 455.0 343.0Q500 322 528.0 284.0Q556 246 556 182Q556 136 534.0 99.5Q512 63 475.0 38.5Q438 14 391.5 1.0Q345 -12 296 -12Z"/><path fill="#9ab8c3" transform="translate(274.096 238) scale(0.024000 -0.024000)" d="M66 0V74H160V594H66V668H348V594H254V74H348V0Z"/><path fill="#9ab8c3" transform="translate(284.032 238) scale(0.024000 -0.024000)" d="M352 -12Q256 -12 188.5 32.5Q121 77 85.5 155.0Q50 233 50 335Q50 439 88.5 516.5Q127 594 197.0 637.0Q267 680 361 680Q445 680 512.5 641.0Q580 602 615 529L532 499Q510 544 465.5 572.5Q421 601 356 601Q297 601 249.5 571.0Q202 541 174.0 481.5Q146 422 146 335Q146 251 172.5 191.0Q199 131 246.5 99.0Q294 67 356 67Q389 67 424.0 75.0Q459 83 488.0 102.5Q517 122 535.0 156.0Q553 190 553 242V264H358V345H642V0H588L563 84Q531 33 475.5 10.5Q420 -12 352 -12Z"/><path fill="#9ab8c3" transform="translate(301.072 238) scale(0.024000 -0.024000)" d="M76 0V668H215L519 100V668H613V0H475L170 571V0Z"/><path fill="#9ab8c3" transform="translate(317.608 238) scale(0.024000 -0.024000)" d="M10 0 261 669H366L616 0H516L465 146H161L110 0ZM190 227H436L313 574Z"/><path fill="#9ab8c3" transform="translate(332.632 238) scale(0.024000 -0.024000)" d="M76 0V668H170V81H529V0Z"/><path fill="#9ab8c3" transform="translate(345.568 238) scale(0.024000 -0.024000)" d=""/><path fill="#9ab8c3" transform="translate(352.288 238) scale(0.024000 -0.024000)" d="M76 0V668H510V587H170V384H510V303H170V0Z"/><path fill="#9ab8c3" transform="translate(365.440 238) scale(0.024000 -0.024000)" d="M66 0V74H160V594H66V668H348V594H254V74H348V0Z"/><path fill="#9ab8c3" transform="translate(375.376 238) scale(0.024000 -0.024000)" d="M76 0V668H529V587H170V384H435V303H170V81H529V0Z"/><path fill="#9ab8c3" transform="translate(388.984 238) scale(0.024000 -0.024000)" d="M76 0V668H170V81H529V0Z"/><path fill="#9ab8c3" transform="translate(401.920 238) scale(0.024000 -0.024000)" d="M76 0V668H258Q338 668 404.5 651.5Q471 635 520.0 597.0Q569 559 596.0 494.5Q623 430 623 335Q623 239 596.0 174.5Q569 110 520.0 71.5Q471 33 404.5 16.5Q338 0 258 0ZM170 79H256Q308 79 356.5 87.5Q405 96 443.5 121.5Q482 147 504.5 198.5Q527 250 527 335Q527 420 504.5 470.5Q482 521 443.5 546.5Q405 572 356.5 580.5Q308 589 256 589H170Z"/><path fill="#9ab8c3" transform="translate(418.072 238) scale(0.024000 -0.024000)" d=""/><path fill="#9ab8c3" transform="translate(424.792 238) scale(0.024000 -0.024000)" d="M76 0V668H170V332L471 668H588L333 389L617 0H502L270 320L170 210V0Z"/><path fill="#9ab8c3" transform="translate(439.840 238) scale(0.024000 -0.024000)" d="M66 0V74H160V594H66V668H348V594H254V74H348V0Z"/><path fill="#9ab8c3" transform="translate(449.776 238) scale(0.024000 -0.024000)" d="M232 0V587H10V668H548V587H326V0Z"/><g transform="translate(92 296)"><g fill="none" stroke="#80e8ff" stroke-width="3" stroke-linecap="square" stroke-linejoin="miter"><path d="M12 52V34H32V12H52M45 5L52 12L45 19"/><circle cx="12" cy="52" r="5" fill="#000"/></g></g><path fill="#effcff" transform="translate(72.000 405) scale(0.023000 -0.023000)" d="M76 0V668H288Q370 668 432.5 653.5Q495 639 530.5 597.5Q566 556 566 476Q566 431 552.0 392.0Q538 353 498.5 326.0Q459 299 381 288L588 0H473L270 281H170V0ZM170 360H295Q344 360 383.5 367.0Q423 374 446.5 398.5Q470 423 470 474Q470 526 446.5 550.0Q423 574 383.5 581.5Q344 589 295 589H170Z"/><path fill="#effcff" transform="translate(86.214 405) scale(0.023000 -0.023000)" d="M276 -12Q233 -12 191.0 3.0Q149 18 114.5 49.5Q80 81 59.0 130.0Q38 179 38 246Q38 313 59.0 362.0Q80 411 114.5 442.5Q149 474 191.0 489.0Q233 504 276 504Q319 504 361.5 489.0Q404 474 438.5 442.5Q473 411 493.5 362.0Q514 313 514 246Q514 179 493.5 130.0Q473 81 438.5 49.5Q404 18 361.5 3.0Q319 -12 276 -12ZM276 62Q312 62 346.0 81.5Q380 101 402.0 141.5Q424 182 424 246Q424 310 402.0 350.5Q380 391 346.0 410.5Q312 430 276 430Q241 430 206.5 410.5Q172 391 150.0 350.5Q128 310 128 246Q128 182 150.0 141.5Q172 101 206.5 81.5Q241 62 276 62Z"/><path fill="#effcff" transform="translate(98.910 405) scale(0.023000 -0.023000)" d="M227 -12Q169 -12 134.0 12.5Q99 37 83.5 80.5Q68 124 68 180V497H152V200Q152 145 165.0 115.0Q178 85 201.5 73.5Q225 62 256 62Q315 62 348.5 103.5Q382 145 382 224V497H466V0H403L382 72Q361 36 325.0 12.0Q289 -12 227 -12Z"/><path fill="#effcff" transform="translate(111.238 405) scale(0.023000 -0.023000)" d="M221 0Q174 0 148.5 9.5Q123 19 113.5 46.0Q104 73 104 124V429H20V496H104V621H188V496H284V429H188V138Q188 100 195.5 87.0Q203 74 239 74H284V0Z"/><path fill="#effcff" transform="translate(118.690 405) scale(0.023000 -0.023000)" d="M281 -12Q203 -12 149.0 22.5Q95 57 66.5 115.5Q38 174 38 247Q38 326 70.0 383.5Q102 441 156.5 472.5Q211 504 279 504Q338 504 383.0 480.5Q428 457 457.5 417.5Q487 378 500.5 328.0Q514 278 510 225H128Q130 163 155.5 127.0Q181 91 216.0 76.5Q251 62 281 62Q323 62 351.5 75.5Q380 89 397 111L478 87Q451 44 401.0 16.0Q351 -12 281 -12ZM129 292H421Q421 327 403.5 359.0Q386 391 354.5 411.5Q323 432 279 432Q242 432 209.0 418.0Q176 404 154.5 373.0Q133 342 129 292Z"/><g transform="translate(277 296)"><g fill="none" stroke="#ff827d" stroke-width="3" stroke-linecap="square" stroke-linejoin="miter"><path d="M8 8H56V56H8ZM14 14L22 22M50 14L42 22"/><path d="M32 23V37M32 45V46" stroke-width="5"/></g></g><path fill="#effcff" transform="translate(257.000 405) scale(0.023000 -0.023000)" d="M232 0V587H10V668H548V587H326V0Z"/><path fill="#effcff" transform="translate(269.834 405) scale(0.023000 -0.023000)" d="M70 0V668H154V421Q175 456 213.0 480.0Q251 504 314 504Q404 504 441.0 451.5Q478 399 478 314V0H394V289Q394 327 387.0 359.5Q380 392 356.5 412.0Q333 432 285 432Q224 432 189.0 390.5Q154 349 154 269V0Z"/><path fill="#effcff" transform="translate(282.392 405) scale(0.023000 -0.023000)" d="M70 0V496H131L158 404Q184 449 228.5 476.5Q273 504 335 504V417Q328 417 320.5 417.0Q313 417 306 416Q221 409 187.5 357.0Q154 305 154 213V0Z"/><path fill="#effcff" transform="translate(290.212 405) scale(0.023000 -0.023000)" d="M281 -12Q203 -12 149.0 22.5Q95 57 66.5 115.5Q38 174 38 247Q38 326 70.0 383.5Q102 441 156.5 472.5Q211 504 279 504Q338 504 383.0 480.5Q428 457 457.5 417.5Q487 378 500.5 328.0Q514 278 510 225H128Q130 163 155.5 127.0Q181 91 216.0 76.5Q251 62 281 62Q323 62 351.5 75.5Q380 89 397 111L478 87Q451 44 401.0 16.0Q351 -12 281 -12ZM129 292H421Q421 327 403.5 359.0Q386 391 354.5 411.5Q323 432 279 432Q242 432 209.0 418.0Q176 404 154.5 373.0Q133 342 129 292Z"/><path fill="#effcff" transform="translate(302.609 405) scale(0.023000 -0.023000)" d="M209 -12Q162 -12 123.0 5.0Q84 22 61.0 54.0Q38 86 38 131Q38 190 79.5 224.0Q121 258 196.5 276.5Q272 295 373 306Q375 369 348.0 403.0Q321 437 261 437Q216 437 187.5 416.5Q159 396 151 360L70 384Q90 441 141.5 472.5Q193 504 260 504Q363 504 410.5 455.5Q458 407 458 303V187Q458 125 463.0 80.0Q468 35 475 0H398L378 68Q356 31 315.0 9.5Q274 -12 209 -12ZM227 55Q266 55 301.0 69.0Q336 83 358.0 116.5Q380 150 380 208V239Q304 231 248.0 219.5Q192 208 161.5 187.5Q131 167 131 133Q131 98 156.5 76.5Q182 55 227 55Z"/><path fill="#effcff" transform="translate(314.707 405) scale(0.023000 -0.023000)" d="M221 0Q174 0 148.5 9.5Q123 19 113.5 46.0Q104 73 104 124V429H20V496H104V621H188V496H284V429H188V138Q188 100 195.5 87.0Q203 74 239 74H284V0Z"/><g transform="translate(462 296)"><g fill="none" stroke="#ffd278" stroke-width="3" stroke-linecap="square" stroke-linejoin="miter"><path d="M38 12L23 35H36L27 52"/><path d="M17 15A24 24 0 0 0 17 49M47 15A24 24 0 0 1 47 49"/></g></g><path fill="#effcff" transform="translate(442.000 405) scale(0.023000 -0.023000)" d="M76 1V668H285Q367 668 429.5 652.0Q492 636 527.5 592.5Q563 549 563 466Q563 384 527.5 340.5Q492 297 429.5 281.5Q367 266 285 266H170V1ZM170 347H293Q342 347 381.0 354.0Q420 361 443.5 386.5Q467 412 467 466Q467 521 443.5 547.0Q420 573 381.0 581.0Q342 589 293 589H170Z"/><path fill="#effcff" transform="translate(455.823 405) scale(0.023000 -0.023000)" d="M227 -12Q169 -12 134.0 12.5Q99 37 83.5 80.5Q68 124 68 180V497H152V200Q152 145 165.0 115.0Q178 85 201.5 73.5Q225 62 256 62Q315 62 348.5 103.5Q382 145 382 224V497H466V0H403L382 72Q361 36 325.0 12.0Q289 -12 227 -12Z"/><path fill="#effcff" transform="translate(468.151 405) scale(0.023000 -0.023000)" d="M187 0Q140 0 114.5 9.5Q89 19 79.5 46.0Q70 73 70 124V667H154V138Q154 100 162.0 87.0Q170 74 205 74H224V0Z"/><path fill="#effcff" transform="translate(473.648 405) scale(0.023000 -0.023000)" d="M239 -12Q196 -12 154.5 1.5Q113 15 80.5 42.5Q48 70 31 112L112 142Q123 98 160.5 78.5Q198 59 239 59Q269 59 295.5 68.0Q322 77 339.0 94.0Q356 111 356 133Q356 174 323.5 191.0Q291 208 246 217L177 231Q141 239 110.0 253.5Q79 268 60.0 295.0Q41 322 41 367Q41 412 69.0 442.5Q97 473 140.5 489.0Q184 505 232 505Q291 505 343.5 480.5Q396 456 418 404L339 375Q326 405 293.5 419.5Q261 434 226 434Q188 434 157.0 417.0Q126 400 126 368Q126 336 152.5 321.5Q179 307 218 299L283 286Q323 278 359.0 263.0Q395 248 418.0 218.5Q441 189 441 136Q441 89 412.0 56.0Q383 23 337.0 5.5Q291 -12 239 -12Z"/><path fill="#effcff" transform="translate(484.481 405) scale(0.023000 -0.023000)" d="M281 -12Q203 -12 149.0 22.5Q95 57 66.5 115.5Q38 174 38 247Q38 326 70.0 383.5Q102 441 156.5 472.5Q211 504 279 504Q338 504 383.0 480.5Q428 457 457.5 417.5Q487 378 500.5 328.0Q514 278 510 225H128Q130 163 155.5 127.0Q181 91 216.0 76.5Q251 62 281 62Q323 62 351.5 75.5Q380 89 397 111L478 87Q451 44 401.0 16.0Q351 -12 281 -12ZM129 292H421Q421 327 403.5 359.0Q386 391 354.5 411.5Q323 432 279 432Q242 432 209.0 418.0Q176 404 154.5 373.0Q133 342 129 292Z"/><g transform="translate(647 296)"><g fill="none" stroke="#ffd278" stroke-width="3" stroke-linecap="square" stroke-linejoin="miter"><circle cx="32" cy="32" r="23"/><path d="M22 32H42M32 22V42"/></g></g><path fill="#effcff" transform="translate(627.000 405) scale(0.023000 -0.023000)" d="M76 0V668H170V81H529V0Z"/><path fill="#effcff" transform="translate(639.397 405) scale(0.023000 -0.023000)" d="M209 -12Q162 -12 123.0 5.0Q84 22 61.0 54.0Q38 86 38 131Q38 190 79.5 224.0Q121 258 196.5 276.5Q272 295 373 306Q375 369 348.0 403.0Q321 437 261 437Q216 437 187.5 416.5Q159 396 151 360L70 384Q90 441 141.5 472.5Q193 504 260 504Q363 504 410.5 455.5Q458 407 458 303V187Q458 125 463.0 80.0Q468 35 475 0H398L378 68Q356 31 315.0 9.5Q274 -12 209 -12ZM227 55Q266 55 301.0 69.0Q336 83 358.0 116.5Q380 150 380 208V239Q304 231 248.0 219.5Q192 208 161.5 187.5Q131 167 131 133Q131 98 156.5 76.5Q182 55 227 55Z"/><path fill="#effcff" transform="translate(651.495 405) scale(0.023000 -0.023000)" d="M70 0V496H132L154 421Q175 456 213.0 480.0Q251 504 314 504Q404 504 441.0 451.5Q478 399 478 314V0H394V289Q394 327 387.0 359.5Q380 392 356.5 412.0Q333 432 285 432Q224 432 189.0 390.5Q154 349 154 269V0Z"/><path fill="#effcff" transform="translate(664.053 405) scale(0.023000 -0.023000)" d="M251 -12Q195 -12 146.0 18.5Q97 49 67.5 106.5Q38 164 38 246Q38 328 67.5 385.5Q97 443 146.0 473.5Q195 504 251 504Q310 504 350.0 480.5Q390 457 412 418V668H496V187Q496 162 498.0 113.5Q500 65 513 0H434L412 75Q390 35 350.0 11.5Q310 -12 251 -12ZM273 60Q337 60 375.5 109.0Q414 158 414 246Q414 335 375.5 383.5Q337 432 273 432Q209 432 170.5 383.5Q132 335 132 246Q132 158 170.5 109.0Q209 60 273 60Z"/><path fill="#effcff" transform="translate(677.025 405) scale(0.023000 -0.023000)" d="M70 0V496H132L154 421Q175 456 211.5 480.0Q248 504 303 504Q360 504 395.0 481.0Q430 458 446 417Q476 463 518.5 483.5Q561 504 613 504Q699 504 736.0 451.5Q773 399 773 314V0H689V289Q689 327 681.5 359.5Q674 392 651.5 412.0Q629 432 583 432Q529 432 496.5 390.5Q464 349 464 269V0H380V289Q380 327 372.5 359.5Q365 392 342.5 412.0Q320 432 274 432Q220 432 187.0 390.5Q154 349 154 269V0Z"/><path fill="#effcff" transform="translate(696.368 405) scale(0.023000 -0.023000)" d="M209 -12Q162 -12 123.0 5.0Q84 22 61.0 54.0Q38 86 38 131Q38 190 79.5 224.0Q121 258 196.5 276.5Q272 295 373 306Q375 369 348.0 403.0Q321 437 261 437Q216 437 187.5 416.5Q159 396 151 360L70 384Q90 441 141.5 472.5Q193 504 260 504Q363 504 410.5 455.5Q458 407 458 303V187Q458 125 463.0 80.0Q468 35 475 0H398L378 68Q356 31 315.0 9.5Q274 -12 209 -12ZM227 55Q266 55 301.0 69.0Q336 83 358.0 116.5Q380 150 380 208V239Q304 231 248.0 219.5Q192 208 161.5 187.5Q131 167 131 133Q131 98 156.5 76.5Q182 55 227 55Z"/><path fill="#effcff" transform="translate(708.466 405) scale(0.023000 -0.023000)" d="M70 0V496H131L158 404Q184 449 228.5 476.5Q273 504 335 504V417Q328 417 320.5 417.0Q313 417 306 416Q221 409 187.5 357.0Q154 305 154 213V0Z"/><path fill="#effcff" transform="translate(716.286 405) scale(0.023000 -0.023000)" d="M70 0V668H154V273L354 496H455L268 291L480 0H377L212 229L154 166V0Z"/><g transform="translate(832 296)"><g fill="none" stroke="#80e8ff" stroke-width="3" stroke-linecap="square" stroke-linejoin="miter"><path d="M10 21L32 9L54 21L32 33ZM10 32L32 44L54 32M10 43L32 55L54 43"/></g></g><path fill="#effcff" transform="translate(812.000 405) scale(0.023000 -0.023000)" d="M76 0V668H345Q418 668 463.5 644.0Q509 620 530.5 582.5Q552 545 552 502Q552 462 534.0 423.0Q516 384 482 355Q532 329 556.5 284.5Q581 240 581 192Q581 144 556.5 100.0Q532 56 483.0 28.0Q434 0 361 0ZM170 382H355Q406 382 431.5 414.0Q457 446 457 484Q457 510 445.5 534.0Q434 558 411.5 573.5Q389 589 355 589H170ZM170 79H371Q408 79 433.0 96.0Q458 113 471.0 139.5Q484 166 484 195Q484 224 471.5 249.5Q459 275 433.5 291.5Q408 308 370 308H170Z"/><path fill="#effcff" transform="translate(826.237 405) scale(0.023000 -0.023000)" d="M227 -12Q169 -12 134.0 12.5Q99 37 83.5 80.5Q68 124 68 180V497H152V200Q152 145 165.0 115.0Q178 85 201.5 73.5Q225 62 256 62Q315 62 348.5 103.5Q382 145 382 224V497H466V0H403L382 72Q361 36 325.0 12.0Q289 -12 227 -12Z"/><path fill="#effcff" transform="translate(838.565 405) scale(0.023000 -0.023000)" d="M156 590Q131 590 112.5 608.5Q94 627 94 653Q94 679 112.5 697.0Q131 715 156 715Q182 715 200.5 697.0Q219 679 219 653Q219 627 200.5 608.5Q182 590 156 590ZM114 0V429H45V496H198V0Z"/><path fill="#effcff" transform="translate(844.959 405) scale(0.023000 -0.023000)" d="M187 0Q140 0 114.5 9.5Q89 19 79.5 46.0Q70 73 70 124V667H154V138Q154 100 162.0 87.0Q170 74 205 74H224V0Z"/><path fill="#effcff" transform="translate(850.456 405) scale(0.023000 -0.023000)" d="M251 -12Q195 -12 146.0 18.5Q97 49 67.5 106.5Q38 164 38 246Q38 328 67.5 385.5Q97 443 146.0 473.5Q195 504 251 504Q310 504 350.0 480.5Q390 457 412 418V668H496V187Q496 162 498.0 113.5Q500 65 513 0H434L412 75Q390 35 350.0 11.5Q310 -12 251 -12ZM273 60Q337 60 375.5 109.0Q414 158 414 246Q414 335 375.5 383.5Q337 432 273 432Q209 432 170.5 383.5Q132 335 132 246Q132 158 170.5 109.0Q209 60 273 60Z"/><g transform="translate(1017 296)"><g fill="none" stroke="#a1f3ce" stroke-width="3" stroke-linecap="square" stroke-linejoin="miter"><path d="M12 13H52V51H12ZM20 33L29 42L45 24"/></g></g><path fill="#effcff" transform="translate(997.000 405) scale(0.023000 -0.023000)" d="M363 -12Q267 -12 197.0 32.5Q127 77 88.5 155.5Q50 234 50 335Q50 436 88.5 513.5Q127 591 197.0 635.5Q267 680 363 680Q460 680 530.0 635.5Q600 591 638.5 513.5Q677 436 677 335Q677 234 638.5 155.5Q600 77 530.0 32.5Q460 -12 363 -12ZM363 67Q424 67 473.5 98.0Q523 129 552.0 188.5Q581 248 581 335Q581 421 552.0 480.5Q523 540 473.5 570.5Q424 601 363 601Q303 601 253.5 570.5Q204 540 175.0 480.5Q146 421 146 335Q146 248 175.0 188.5Q204 129 253.5 98.0Q303 67 363 67Z"/><path fill="#effcff" transform="translate(1013.721 405) scale(0.023000 -0.023000)" d="M99 0V429H15V496H99V570Q99 621 109.0 651.0Q119 681 148.0 693.5Q177 706 232 706H286V635H234Q202 635 192.5 622.0Q183 609 183 571V496H286V429H183V0Z"/><path fill="#effcff" transform="translate(1020.874 405) scale(0.023000 -0.023000)" d="M99 0V429H15V496H99V570Q99 621 109.0 651.0Q119 681 148.0 693.5Q177 706 232 706H286V635H234Q202 635 192.5 622.0Q183 609 183 571V496H286V429H183V0Z"/><path fill="#effcff" transform="translate(1028.027 405) scale(0.023000 -0.023000)" d="M187 0Q140 0 114.5 9.5Q89 19 79.5 46.0Q70 73 70 124V667H154V138Q154 100 162.0 87.0Q170 74 205 74H224V0Z"/><path fill="#effcff" transform="translate(1033.524 405) scale(0.023000 -0.023000)" d="M156 590Q131 590 112.5 608.5Q94 627 94 653Q94 679 112.5 697.0Q131 715 156 715Q182 715 200.5 697.0Q219 679 219 653Q219 627 200.5 608.5Q182 590 156 590ZM114 0V429H45V496H198V0Z"/><path fill="#effcff" transform="translate(1039.918 405) scale(0.023000 -0.023000)" d="M70 0V496H132L154 421Q175 456 213.0 480.0Q251 504 314 504Q404 504 441.0 451.5Q478 399 478 314V0H394V289Q394 327 387.0 359.5Q380 392 356.5 412.0Q333 432 285 432Q224 432 189.0 390.5Q154 349 154 269V0Z"/><path fill="#effcff" transform="translate(1052.476 405) scale(0.023000 -0.023000)" d="M281 -12Q203 -12 149.0 22.5Q95 57 66.5 115.5Q38 174 38 247Q38 326 70.0 383.5Q102 441 156.5 472.5Q211 504 279 504Q338 504 383.0 480.5Q428 457 457.5 417.5Q487 378 500.5 328.0Q514 278 510 225H128Q130 163 155.5 127.0Q181 91 216.0 76.5Q251 62 281 62Q323 62 351.5 75.5Q380 89 397 111L478 87Q451 44 401.0 16.0Q351 -12 281 -12ZM129 292H421Q421 327 403.5 359.0Q386 391 354.5 411.5Q323 432 279 432Q242 432 209.0 418.0Q176 404 154.5 373.0Q133 342 129 292Z"/><rect x="52" y="458" width="164" height="44" fill="#000000" stroke="#315561"/><path fill="#effcff" transform="translate(52.000 532) scale(0.022000 -0.022000)" d="M76 0V668H510V587H170V384H510V303H170V0Z"/><path fill="#effcff" transform="translate(64.056 532) scale(0.022000 -0.022000)" d="M276 -12Q233 -12 191.0 3.0Q149 18 114.5 49.5Q80 81 59.0 130.0Q38 179 38 246Q38 313 59.0 362.0Q80 411 114.5 442.5Q149 474 191.0 489.0Q233 504 276 504Q319 504 361.5 489.0Q404 474 438.5 442.5Q473 411 493.5 362.0Q514 313 514 246Q514 179 493.5 130.0Q473 81 438.5 49.5Q404 18 361.5 3.0Q319 -12 276 -12ZM276 62Q312 62 346.0 81.5Q380 101 402.0 141.5Q424 182 424 246Q424 310 402.0 350.5Q380 391 346.0 410.5Q312 430 276 430Q241 430 206.5 410.5Q172 391 150.0 350.5Q128 310 128 246Q128 182 150.0 141.5Q172 101 206.5 81.5Q241 62 276 62Z"/><path fill="#effcff" transform="translate(76.200 532) scale(0.022000 -0.022000)" d="M274 -192Q234 -192 194.5 -180.5Q155 -169 124.5 -143.0Q94 -117 81 -76L165 -53Q179 -92 211.0 -105.0Q243 -118 274 -118Q351 -118 378.5 -81.0Q406 -44 406 28V94Q383 55 345.0 32.0Q307 9 248 9Q193 9 145.0 37.5Q97 66 67.5 121.5Q38 177 38 256Q38 336 67.5 391.0Q97 446 145.0 475.0Q193 504 248 504Q307 504 345.0 480.5Q383 457 406 418L429 496H490V47Q490 -71 442.5 -131.5Q395 -192 274 -192ZM269 79Q307 79 338.5 97.0Q370 115 389.5 154.0Q409 193 409 256Q409 319 389.5 358.0Q370 397 338.5 414.5Q307 432 269 432Q208 432 168.5 386.5Q129 341 129 256Q129 171 168.5 125.0Q208 79 269 79Z"/><path fill="#9ab8c3" transform="translate(52.000 563) scale(0.019000 -0.019000)" d="M137 0 162 172H38L49 253H173L196 415H72L83 496H207L231 668H313L289 496H412L436 668H518L494 496H617L606 415H482L460 253H583L572 172H448L424 0H342L366 172H243L219 0ZM255 253H378L400 415H277Z"/><path fill="#9ab8c3" transform="translate(64.445 563) scale(0.019000 -0.019000)" d="M324 -12Q195 -12 127.5 77.5Q60 167 60 335Q60 502 127.5 591.0Q195 680 324 680Q453 680 520.5 591.0Q588 502 588 335Q588 167 520.5 77.5Q453 -12 324 -12ZM480 190Q497 250 497 335Q497 466 454.5 536.0Q412 606 324 606Q259 606 217 566ZM324 62Q393 62 435 107L171 486Q161 455 156.0 417.0Q151 379 151 335Q151 204 193.5 133.0Q236 62 324 62Z"/><path fill="#9ab8c3" transform="translate(76.757 563) scale(0.019000 -0.019000)" d="M324 -12Q195 -12 127.5 77.5Q60 167 60 335Q60 502 127.5 591.0Q195 680 324 680Q453 680 520.5 591.0Q588 502 588 335Q588 167 520.5 77.5Q453 -12 324 -12ZM480 190Q497 250 497 335Q497 466 454.5 536.0Q412 606 324 606Q259 606 217 566ZM324 62Q393 62 435 107L171 486Q161 455 156.0 417.0Q151 379 151 335Q151 204 193.5 133.0Q236 62 324 62Z"/><path fill="#9ab8c3" transform="translate(89.069 563) scale(0.019000 -0.019000)" d="M324 -12Q195 -12 127.5 77.5Q60 167 60 335Q60 502 127.5 591.0Q195 680 324 680Q453 680 520.5 591.0Q588 502 588 335Q588 167 520.5 77.5Q453 -12 324 -12ZM480 190Q497 250 497 335Q497 466 454.5 536.0Q412 606 324 606Q259 606 217 566ZM324 62Q393 62 435 107L171 486Q161 455 156.0 417.0Q151 379 151 335Q151 204 193.5 133.0Q236 62 324 62Z"/><path fill="#9ab8c3" transform="translate(101.381 563) scale(0.019000 -0.019000)" d="M324 -12Q195 -12 127.5 77.5Q60 167 60 335Q60 502 127.5 591.0Q195 680 324 680Q453 680 520.5 591.0Q588 502 588 335Q588 167 520.5 77.5Q453 -12 324 -12ZM480 190Q497 250 497 335Q497 466 454.5 536.0Q412 606 324 606Q259 606 217 566ZM324 62Q393 62 435 107L171 486Q161 455 156.0 417.0Q151 379 151 335Q151 204 193.5 133.0Q236 62 324 62Z"/><path fill="#9ab8c3" transform="translate(113.693 563) scale(0.019000 -0.019000)" d="M324 -12Q195 -12 127.5 77.5Q60 167 60 335Q60 502 127.5 591.0Q195 680 324 680Q453 680 520.5 591.0Q588 502 588 335Q588 167 520.5 77.5Q453 -12 324 -12ZM480 190Q497 250 497 335Q497 466 454.5 536.0Q412 606 324 606Q259 606 217 566ZM324 62Q393 62 435 107L171 486Q161 455 156.0 417.0Q151 379 151 335Q151 204 193.5 133.0Q236 62 324 62Z"/><path fill="#9ab8c3" transform="translate(126.005 563) scale(0.019000 -0.019000)" d="M324 -12Q195 -12 127.5 77.5Q60 167 60 335Q60 502 127.5 591.0Q195 680 324 680Q453 680 520.5 591.0Q588 502 588 335Q588 167 520.5 77.5Q453 -12 324 -12ZM480 190Q497 250 497 335Q497 466 454.5 536.0Q412 606 324 606Q259 606 217 566ZM324 62Q393 62 435 107L171 486Q161 455 156.0 417.0Q151 379 151 335Q151 204 193.5 133.0Q236 62 324 62Z"/><rect x="238" y="458" width="164" height="44" fill="#80e8ff" stroke="#315561"/><path fill="#effcff" transform="translate(238.000 532) scale(0.022000 -0.022000)" d="M66 0V74H160V594H66V668H348V594H254V74H348V0Z"/><path fill="#effcff" transform="translate(247.108 532) scale(0.022000 -0.022000)" d="M269 -12Q198 -12 146.0 21.5Q94 55 66.0 113.0Q38 171 38 246Q38 320 67.5 378.5Q97 437 151.0 470.5Q205 504 278 504Q345 504 393.0 471.0Q441 438 465 392L388 364Q372 394 341.0 412.0Q310 430 272 430Q235 430 202.0 410.5Q169 391 149.0 350.5Q129 310 129 247Q129 185 149.5 143.5Q170 102 202.5 82.0Q235 62 272 62Q313 62 343.5 80.5Q374 99 390 127L467 99Q439 51 387.0 19.5Q335 -12 269 -12Z"/><path fill="#effcff" transform="translate(258.108 532) scale(0.022000 -0.022000)" d="M281 -12Q203 -12 149.0 22.5Q95 57 66.5 115.5Q38 174 38 247Q38 326 70.0 383.5Q102 441 156.5 472.5Q211 504 279 504Q338 504 383.0 480.5Q428 457 457.5 417.5Q487 378 500.5 328.0Q514 278 510 225H128Q130 163 155.5 127.0Q181 91 216.0 76.5Q251 62 281 62Q323 62 351.5 75.5Q380 89 397 111L478 87Q451 44 401.0 16.0Q351 -12 281 -12ZM129 292H421Q421 327 403.5 359.0Q386 391 354.5 411.5Q323 432 279 432Q242 432 209.0 418.0Q176 404 154.5 373.0Q133 342 129 292Z"/><path fill="#9ab8c3" transform="translate(238.000 563) scale(0.019000 -0.019000)" d="M137 0 162 172H38L49 253H173L196 415H72L83 496H207L231 668H313L289 496H412L436 668H518L494 496H617L606 415H482L460 253H583L572 172H448L424 0H342L366 172H243L219 0ZM255 253H378L400 415H277Z"/><path fill="#9ab8c3" transform="translate(250.445 563) scale(0.019000 -0.019000)" d="M307 -12Q238 -12 182.0 11.5Q126 35 93.0 79.5Q60 124 60 188Q60 253 94.0 298.5Q128 344 183 366Q157 391 141.5 425.0Q126 459 126 499Q126 549 150.5 590.0Q175 631 216.0 655.5Q257 680 307 680Q358 680 399.0 655.5Q440 631 464.5 590.0Q489 549 489 499Q489 459 473.5 425.0Q458 391 432 366Q488 344 521.5 298.5Q555 253 555 188Q555 124 522.0 79.5Q489 35 433.0 11.5Q377 -12 307 -12ZM307 391Q351 391 382.5 422.5Q414 454 414 500Q414 544 382.5 575.0Q351 606 307 606Q263 606 231.5 575.0Q200 544 200 500Q200 454 231.5 422.5Q263 391 307 391ZM307 62Q379 62 421.5 96.0Q464 130 464 188Q464 247 421.5 282.0Q379 317 307 317Q236 317 193.5 282.0Q151 247 151 188Q151 130 193.5 96.0Q236 62 307 62Z"/><path fill="#9ab8c3" transform="translate(262.130 563) scale(0.019000 -0.019000)" d="M324 -12Q195 -12 127.5 77.5Q60 167 60 335Q60 502 127.5 591.0Q195 680 324 680Q453 680 520.5 591.0Q588 502 588 335Q588 167 520.5 77.5Q453 -12 324 -12ZM480 190Q497 250 497 335Q497 466 454.5 536.0Q412 606 324 606Q259 606 217 566ZM324 62Q393 62 435 107L171 486Q161 455 156.0 417.0Q151 379 151 335Q151 204 193.5 133.0Q236 62 324 62Z"/><path fill="#9ab8c3" transform="translate(274.442 563) scale(0.019000 -0.019000)" d="M76 0V668H529V587H170V384H435V303H170V81H529V0Z"/><path fill="#9ab8c3" transform="translate(285.215 563) scale(0.019000 -0.019000)" d="M307 -12Q238 -12 182.0 11.5Q126 35 93.0 79.5Q60 124 60 188Q60 253 94.0 298.5Q128 344 183 366Q157 391 141.5 425.0Q126 459 126 499Q126 549 150.5 590.0Q175 631 216.0 655.5Q257 680 307 680Q358 680 399.0 655.5Q440 631 464.5 590.0Q489 549 489 499Q489 459 473.5 425.0Q458 391 432 366Q488 344 521.5 298.5Q555 253 555 188Q555 124 522.0 79.5Q489 35 433.0 11.5Q377 -12 307 -12ZM307 391Q351 391 382.5 422.5Q414 454 414 500Q414 544 382.5 575.0Q351 606 307 606Q263 606 231.5 575.0Q200 544 200 500Q200 454 231.5 422.5Q263 391 307 391ZM307 62Q379 62 421.5 96.0Q464 130 464 188Q464 247 421.5 282.0Q379 317 307 317Q236 317 193.5 282.0Q151 247 151 188Q151 130 193.5 96.0Q236 62 307 62Z"/><path fill="#9ab8c3" transform="translate(296.900 563) scale(0.019000 -0.019000)" d="M76 0V668H510V587H170V384H510V303H170V0Z"/><path fill="#9ab8c3" transform="translate(307.312 563) scale(0.019000 -0.019000)" d="M76 0V668H510V587H170V384H510V303H170V0Z"/><rect x="424" y="458" width="164" height="44" fill="#ffd278" stroke="#315561"/><path fill="#effcff" transform="translate(424.000 532) scale(0.022000 -0.022000)" d="M296 -12Q241 -12 189.0 5.0Q137 22 97.5 57.0Q58 92 40 146L127 172Q139 136 166.0 112.5Q193 89 228.5 78.0Q264 67 300 67Q340 67 376.0 80.0Q412 93 434.5 119.5Q457 146 457 186Q457 227 427.0 251.0Q397 275 323 294L238 313Q192 325 147.5 345.0Q103 365 74.5 402.0Q46 439 46 501Q46 558 81.5 598.0Q117 638 173.5 659.0Q230 680 291 680Q338 680 383.5 666.5Q429 653 465.5 625.5Q502 598 523 555L437 530Q418 565 375.5 583.0Q333 601 287 601Q251 601 218.0 589.5Q185 578 164.0 555.0Q143 532 143 497Q143 464 162.5 444.0Q182 424 214.5 412.5Q247 401 286 392L359 376Q410 364 455.0 343.0Q500 322 528.0 284.0Q556 246 556 182Q556 136 534.0 99.5Q512 63 475.0 38.5Q438 14 391.5 1.0Q345 -12 296 -12Z"/><path fill="#effcff" transform="translate(437.112 532) scale(0.022000 -0.022000)" d="M156 590Q131 590 112.5 608.5Q94 627 94 653Q94 679 112.5 697.0Q131 715 156 715Q182 715 200.5 697.0Q219 679 219 653Q219 627 200.5 608.5Q182 590 156 590ZM114 0V429H45V496H198V0Z"/><path fill="#effcff" transform="translate(443.228 532) scale(0.022000 -0.022000)" d="M274 -192Q234 -192 194.5 -180.5Q155 -169 124.5 -143.0Q94 -117 81 -76L165 -53Q179 -92 211.0 -105.0Q243 -118 274 -118Q351 -118 378.5 -81.0Q406 -44 406 28V94Q383 55 345.0 32.0Q307 9 248 9Q193 9 145.0 37.5Q97 66 67.5 121.5Q38 177 38 256Q38 336 67.5 391.0Q97 446 145.0 475.0Q193 504 248 504Q307 504 345.0 480.5Q383 457 406 418L429 496H490V47Q490 -71 442.5 -131.5Q395 -192 274 -192ZM269 79Q307 79 338.5 97.0Q370 115 389.5 154.0Q409 193 409 256Q409 319 389.5 358.0Q370 397 338.5 414.5Q307 432 269 432Q208 432 168.5 386.5Q129 341 129 256Q129 171 168.5 125.0Q208 79 269 79Z"/><path fill="#effcff" transform="translate(455.548 532) scale(0.022000 -0.022000)" d="M70 0V496H132L154 421Q175 456 213.0 480.0Q251 504 314 504Q404 504 441.0 451.5Q478 399 478 314V0H394V289Q394 327 387.0 359.5Q380 392 356.5 412.0Q333 432 285 432Q224 432 189.0 390.5Q154 349 154 269V0Z"/><path fill="#effcff" transform="translate(467.560 532) scale(0.022000 -0.022000)" d="M209 -12Q162 -12 123.0 5.0Q84 22 61.0 54.0Q38 86 38 131Q38 190 79.5 224.0Q121 258 196.5 276.5Q272 295 373 306Q375 369 348.0 403.0Q321 437 261 437Q216 437 187.5 416.5Q159 396 151 360L70 384Q90 441 141.5 472.5Q193 504 260 504Q363 504 410.5 455.5Q458 407 458 303V187Q458 125 463.0 80.0Q468 35 475 0H398L378 68Q356 31 315.0 9.5Q274 -12 209 -12ZM227 55Q266 55 301.0 69.0Q336 83 358.0 116.5Q380 150 380 208V239Q304 231 248.0 219.5Q192 208 161.5 187.5Q131 167 131 133Q131 98 156.5 76.5Q182 55 227 55Z"/><path fill="#effcff" transform="translate(479.132 532) scale(0.022000 -0.022000)" d="M187 0Q140 0 114.5 9.5Q89 19 79.5 46.0Q70 73 70 124V667H154V138Q154 100 162.0 87.0Q170 74 205 74H224V0Z"/><path fill="#9ab8c3" transform="translate(424.000 563) scale(0.019000 -0.019000)" d="M137 0 162 172H38L49 253H173L196 415H72L83 496H207L231 668H313L289 496H412L436 668H518L494 496H617L606 415H482L460 253H583L572 172H448L424 0H342L366 172H243L219 0ZM255 253H378L400 415H277Z"/><path fill="#9ab8c3" transform="translate(436.445 563) scale(0.019000 -0.019000)" d="M76 0V668H510V587H170V384H510V303H170V0Z"/><path fill="#9ab8c3" transform="translate(446.857 563) scale(0.019000 -0.019000)" d="M76 0V668H510V587H170V384H510V303H170V0Z"/><path fill="#9ab8c3" transform="translate(457.269 563) scale(0.019000 -0.019000)" d="M76 0V668H258Q338 668 404.5 651.5Q471 635 520.0 597.0Q569 559 596.0 494.5Q623 430 623 335Q623 239 596.0 174.5Q569 110 520.0 71.5Q471 33 404.5 16.5Q338 0 258 0ZM170 79H256Q308 79 356.5 87.5Q405 96 443.5 121.5Q482 147 504.5 198.5Q527 250 527 335Q527 420 504.5 470.5Q482 521 443.5 546.5Q405 572 356.5 580.5Q308 589 256 589H170Z"/><path fill="#9ab8c3" transform="translate(470.056 563) scale(0.019000 -0.019000)" d="M34 0V75Q152 162 235.5 235.0Q319 308 363.5 371.5Q408 435 408 494Q408 546 375.0 578.0Q342 610 283 610Q236 610 195.5 584.5Q155 559 143 498L59 522Q77 595 137.0 637.5Q197 680 285 680Q347 680 394.5 659.5Q442 639 469.5 600.0Q497 561 497 505Q497 447 469.0 391.5Q441 336 392.0 283.5Q343 231 280.0 179.5Q217 128 147 77H515V0Z"/><path fill="#9ab8c3" transform="translate(480.487 563) scale(0.019000 -0.019000)" d="M93 0 383 587H15V668H476V587L198 0Z"/><path fill="#9ab8c3" transform="translate(490.177 563) scale(0.019000 -0.019000)" d="M307 -12Q238 -12 182.0 11.5Q126 35 93.0 79.5Q60 124 60 188Q60 253 94.0 298.5Q128 344 183 366Q157 391 141.5 425.0Q126 459 126 499Q126 549 150.5 590.0Q175 631 216.0 655.5Q257 680 307 680Q358 680 399.0 655.5Q440 631 464.5 590.0Q489 549 489 499Q489 459 473.5 425.0Q458 391 432 366Q488 344 521.5 298.5Q555 253 555 188Q555 124 522.0 79.5Q489 35 433.0 11.5Q377 -12 307 -12ZM307 391Q351 391 382.5 422.5Q414 454 414 500Q414 544 382.5 575.0Q351 606 307 606Q263 606 231.5 575.0Q200 544 200 500Q200 454 231.5 422.5Q263 391 307 391ZM307 62Q379 62 421.5 96.0Q464 130 464 188Q464 247 421.5 282.0Q379 317 307 317Q236 317 193.5 282.0Q151 247 151 188Q151 130 193.5 96.0Q236 62 307 62Z"/><rect x="610" y="458" width="164" height="44" fill="#ff827d" stroke="#315561"/><path fill="#effcff" transform="translate(610.000 532) scale(0.022000 -0.022000)" d="M76 0V668H170V384H520V668H614V0H520V303H170V0Z"/><path fill="#effcff" transform="translate(625.180 532) scale(0.022000 -0.022000)" d="M276 -12Q233 -12 191.0 3.0Q149 18 114.5 49.5Q80 81 59.0 130.0Q38 179 38 246Q38 313 59.0 362.0Q80 411 114.5 442.5Q149 474 191.0 489.0Q233 504 276 504Q319 504 361.5 489.0Q404 474 438.5 442.5Q473 411 493.5 362.0Q514 313 514 246Q514 179 493.5 130.0Q473 81 438.5 49.5Q404 18 361.5 3.0Q319 -12 276 -12ZM276 62Q312 62 346.0 81.5Q380 101 402.0 141.5Q424 182 424 246Q424 310 402.0 350.5Q380 391 346.0 410.5Q312 430 276 430Q241 430 206.5 410.5Q172 391 150.0 350.5Q128 310 128 246Q128 182 150.0 141.5Q172 101 206.5 81.5Q241 62 276 62Z"/><path fill="#effcff" transform="translate(637.324 532) scale(0.022000 -0.022000)" d="M239 -12Q196 -12 154.5 1.5Q113 15 80.5 42.5Q48 70 31 112L112 142Q123 98 160.5 78.5Q198 59 239 59Q269 59 295.5 68.0Q322 77 339.0 94.0Q356 111 356 133Q356 174 323.5 191.0Q291 208 246 217L177 231Q141 239 110.0 253.5Q79 268 60.0 295.0Q41 322 41 367Q41 412 69.0 442.5Q97 473 140.5 489.0Q184 505 232 505Q291 505 343.5 480.5Q396 456 418 404L339 375Q326 405 293.5 419.5Q261 434 226 434Q188 434 157.0 417.0Q126 400 126 368Q126 336 152.5 321.5Q179 307 218 299L283 286Q323 278 359.0 263.0Q395 248 418.0 218.5Q441 189 441 136Q441 89 412.0 56.0Q383 23 337.0 5.5Q291 -12 239 -12Z"/><path fill="#effcff" transform="translate(647.686 532) scale(0.022000 -0.022000)" d="M221 0Q174 0 148.5 9.5Q123 19 113.5 46.0Q104 73 104 124V429H20V496H104V621H188V496H284V429H188V138Q188 100 195.5 87.0Q203 74 239 74H284V0Z"/><path fill="#effcff" transform="translate(654.814 532) scale(0.022000 -0.022000)" d="M156 590Q131 590 112.5 608.5Q94 627 94 653Q94 679 112.5 697.0Q131 715 156 715Q182 715 200.5 697.0Q219 679 219 653Q219 627 200.5 608.5Q182 590 156 590ZM114 0V429H45V496H198V0Z"/><path fill="#effcff" transform="translate(660.930 532) scale(0.022000 -0.022000)" d="M187 0Q140 0 114.5 9.5Q89 19 79.5 46.0Q70 73 70 124V667H154V138Q154 100 162.0 87.0Q170 74 205 74H224V0Z"/><path fill="#effcff" transform="translate(666.188 532) scale(0.022000 -0.022000)" d="M281 -12Q203 -12 149.0 22.5Q95 57 66.5 115.5Q38 174 38 247Q38 326 70.0 383.5Q102 441 156.5 472.5Q211 504 279 504Q338 504 383.0 480.5Q428 457 457.5 417.5Q487 378 500.5 328.0Q514 278 510 225H128Q130 163 155.5 127.0Q181 91 216.0 76.5Q251 62 281 62Q323 62 351.5 75.5Q380 89 397 111L478 87Q451 44 401.0 16.0Q351 -12 281 -12ZM129 292H421Q421 327 403.5 359.0Q386 391 354.5 411.5Q323 432 279 432Q242 432 209.0 418.0Q176 404 154.5 373.0Q133 342 129 292Z"/><path fill="#9ab8c3" transform="translate(610.000 563) scale(0.019000 -0.019000)" d="M137 0 162 172H38L49 253H173L196 415H72L83 496H207L231 668H313L289 496H412L436 668H518L494 496H617L606 415H482L460 253H583L572 172H448L424 0H342L366 172H243L219 0ZM255 253H378L400 415H277Z"/><path fill="#9ab8c3" transform="translate(622.445 563) scale(0.019000 -0.019000)" d="M76 0V668H510V587H170V384H510V303H170V0Z"/><path fill="#9ab8c3" transform="translate(632.857 563) scale(0.019000 -0.019000)" d="M76 0V668H510V587H170V384H510V303H170V0Z"/><path fill="#9ab8c3" transform="translate(643.269 563) scale(0.019000 -0.019000)" d="M307 -12Q238 -12 182.0 11.5Q126 35 93.0 79.5Q60 124 60 188Q60 253 94.0 298.5Q128 344 183 366Q157 391 141.5 425.0Q126 459 126 499Q126 549 150.5 590.0Q175 631 216.0 655.5Q257 680 307 680Q358 680 399.0 655.5Q440 631 464.5 590.0Q489 549 489 499Q489 459 473.5 425.0Q458 391 432 366Q488 344 521.5 298.5Q555 253 555 188Q555 124 522.0 79.5Q489 35 433.0 11.5Q377 -12 307 -12ZM307 391Q351 391 382.5 422.5Q414 454 414 500Q414 544 382.5 575.0Q351 606 307 606Q263 606 231.5 575.0Q200 544 200 500Q200 454 231.5 422.5Q263 391 307 391ZM307 62Q379 62 421.5 96.0Q464 130 464 188Q464 247 421.5 282.0Q379 317 307 317Q236 317 193.5 282.0Q151 247 151 188Q151 130 193.5 96.0Q236 62 307 62Z"/><path fill="#9ab8c3" transform="translate(654.954 563) scale(0.019000 -0.019000)" d="M34 0V75Q152 162 235.5 235.0Q319 308 363.5 371.5Q408 435 408 494Q408 546 375.0 578.0Q342 610 283 610Q236 610 195.5 584.5Q155 559 143 498L59 522Q77 595 137.0 637.5Q197 680 285 680Q347 680 394.5 659.5Q442 639 469.5 600.0Q497 561 497 505Q497 447 469.0 391.5Q441 336 392.0 283.5Q343 231 280.0 179.5Q217 128 147 77H515V0Z"/><path fill="#9ab8c3" transform="translate(665.385 563) scale(0.019000 -0.019000)" d="M93 0 383 587H15V668H476V587L198 0Z"/><path fill="#9ab8c3" transform="translate(675.075 563) scale(0.019000 -0.019000)" d="M76 0V668H258Q338 668 404.5 651.5Q471 635 520.0 597.0Q569 559 596.0 494.5Q623 430 623 335Q623 239 596.0 174.5Q569 110 520.0 71.5Q471 33 404.5 16.5Q338 0 258 0ZM170 79H256Q308 79 356.5 87.5Q405 96 443.5 121.5Q482 147 504.5 198.5Q527 250 527 335Q527 420 504.5 470.5Q482 521 443.5 546.5Q405 572 356.5 580.5Q308 589 256 589H170Z"/><rect x="796" y="458" width="164" height="44" fill="#a1f3ce" stroke="#315561"/><path fill="#effcff" transform="translate(796.000 532) scale(0.022000 -0.022000)" d="M76 0V668H288Q370 668 432.5 653.5Q495 639 530.5 597.5Q566 556 566 476Q566 431 552.0 392.0Q538 353 498.5 326.0Q459 299 381 288L588 0H473L270 281H170V0ZM170 360H295Q344 360 383.5 367.0Q423 374 446.5 398.5Q470 423 470 474Q470 526 446.5 550.0Q423 574 383.5 581.5Q344 589 295 589H170Z"/><path fill="#effcff" transform="translate(809.596 532) scale(0.022000 -0.022000)" d="M281 -12Q203 -12 149.0 22.5Q95 57 66.5 115.5Q38 174 38 247Q38 326 70.0 383.5Q102 441 156.5 472.5Q211 504 279 504Q338 504 383.0 480.5Q428 457 457.5 417.5Q487 378 500.5 328.0Q514 278 510 225H128Q130 163 155.5 127.0Q181 91 216.0 76.5Q251 62 281 62Q323 62 351.5 75.5Q380 89 397 111L478 87Q451 44 401.0 16.0Q351 -12 281 -12ZM129 292H421Q421 327 403.5 359.0Q386 391 354.5 411.5Q323 432 279 432Q242 432 209.0 418.0Q176 404 154.5 373.0Q133 342 129 292Z"/><path fill="#effcff" transform="translate(821.454 532) scale(0.022000 -0.022000)" d="M70 -161V496H131L154 418Q177 457 217.0 480.5Q257 504 315 504Q372 504 420.5 473.5Q469 443 498.5 385.5Q528 328 528 246Q528 165 498.5 107.0Q469 49 420.5 18.5Q372 -12 315 -12Q257 -12 217.0 11.5Q177 35 154 75V-161ZM293 60Q357 60 395.5 109.0Q434 158 434 246Q434 335 395.5 383.5Q357 432 293 432Q229 432 190.5 383.5Q152 335 152 246Q152 158 190.5 109.0Q229 60 293 60Z"/><path fill="#effcff" transform="translate(833.906 532) scale(0.022000 -0.022000)" d="M209 -12Q162 -12 123.0 5.0Q84 22 61.0 54.0Q38 86 38 131Q38 190 79.5 224.0Q121 258 196.5 276.5Q272 295 373 306Q375 369 348.0 403.0Q321 437 261 437Q216 437 187.5 416.5Q159 396 151 360L70 384Q90 441 141.5 472.5Q193 504 260 504Q363 504 410.5 455.5Q458 407 458 303V187Q458 125 463.0 80.0Q468 35 475 0H398L378 68Q356 31 315.0 9.5Q274 -12 209 -12ZM227 55Q266 55 301.0 69.0Q336 83 358.0 116.5Q380 150 380 208V239Q304 231 248.0 219.5Q192 208 161.5 187.5Q131 167 131 133Q131 98 156.5 76.5Q182 55 227 55Z"/><path fill="#effcff" transform="translate(845.478 532) scale(0.022000 -0.022000)" d="M156 590Q131 590 112.5 608.5Q94 627 94 653Q94 679 112.5 697.0Q131 715 156 715Q182 715 200.5 697.0Q219 679 219 653Q219 627 200.5 608.5Q182 590 156 590ZM114 0V429H45V496H198V0Z"/><path fill="#effcff" transform="translate(851.594 532) scale(0.022000 -0.022000)" d="M70 0V496H131L158 404Q184 449 228.5 476.5Q273 504 335 504V417Q328 417 320.5 417.0Q313 417 306 416Q221 409 187.5 357.0Q154 305 154 213V0Z"/><path fill="#9ab8c3" transform="translate(796.000 563) scale(0.019000 -0.019000)" d="M137 0 162 172H38L49 253H173L196 415H72L83 496H207L231 668H313L289 496H412L436 668H518L494 496H617L606 415H482L460 253H583L572 172H448L424 0H342L366 172H243L219 0ZM255 253H378L400 415H277Z"/><path fill="#9ab8c3" transform="translate(808.445 563) scale(0.019000 -0.019000)" d="M10 0 261 669H366L616 0H516L465 146H161L110 0ZM190 227H436L313 574Z"/><path fill="#9ab8c3" transform="translate(820.339 563) scale(0.019000 -0.019000)" d="M220 0V504H42V571Q90 571 131.5 578.0Q173 585 203.5 606.0Q234 627 248 668H304V0Z"/><path fill="#9ab8c3" transform="translate(827.977 563) scale(0.019000 -0.019000)" d="M76 0V668H510V587H170V384H510V303H170V0Z"/><path fill="#9ab8c3" transform="translate(838.389 563) scale(0.019000 -0.019000)" d="M272 -12Q205 -12 157.5 10.0Q110 32 82.0 69.0Q54 106 42 151L125 175Q136 123 172.5 90.5Q209 58 273 58Q339 58 381.5 91.5Q424 125 424 187Q424 225 408.0 249.5Q392 274 367.0 287.0Q342 300 313.5 306.0Q285 312 259.5 313.0Q234 314 218 314V390Q246 390 278.5 393.0Q311 396 340.5 406.5Q370 417 388.5 439.5Q407 462 407 501Q407 555 368.5 582.5Q330 610 277 610Q216 610 180.0 579.0Q144 548 134 498L52 522Q70 593 128.5 636.5Q187 680 279 680Q337 680 386.0 663.5Q435 647 465.0 609.5Q495 572 495 510Q495 459 467.0 418.0Q439 377 386 355Q461 332 487.5 286.5Q514 241 514 188Q514 121 480.0 76.5Q446 32 391.0 10.0Q336 -12 272 -12Z"/><path fill="#9ab8c3" transform="translate(849.295 563) scale(0.019000 -0.019000)" d="M353 -12Q258 -12 190.0 32.5Q122 77 86.0 155.0Q50 233 50 335Q50 439 88.5 516.5Q127 594 197.0 637.0Q267 680 361 680Q445 680 512.5 641.0Q580 602 614 529L532 499Q510 544 465.5 572.5Q421 601 356 601Q297 601 249.5 571.0Q202 541 174.0 481.5Q146 422 146 335Q146 251 173.0 191.0Q200 131 248.5 99.0Q297 67 359 67Q424 67 468.5 95.0Q513 123 536 169L618 139Q582 65 512.0 26.5Q442 -12 353 -12Z"/><path fill="#9ab8c3" transform="translate(861.759 563) scale(0.019000 -0.019000)" d="M76 0V668H529V587H170V384H435V303H170V81H529V0Z"/><rect x="982" y="458" width="164" height="44" fill="#effcff" stroke="#315561"/><path fill="#effcff" transform="translate(982.000 532) scale(0.022000 -0.022000)" d="M232 0V587H10V668H548V587H326V0Z"/><path fill="#effcff" transform="translate(994.276 532) scale(0.022000 -0.022000)" d="M37 -161V-87H71Q107 -87 126.0 -81.5Q145 -76 156.5 -57.5Q168 -39 179 -1L0 495H93L215 113L337 495H429L253 -22Q235 -75 216.5 -105.5Q198 -136 167.0 -148.5Q136 -161 80 -161Z"/><path fill="#effcff" transform="translate(1003.714 532) scale(0.022000 -0.022000)" d="M70 -161V496H131L154 418Q177 457 217.0 480.5Q257 504 315 504Q372 504 420.5 473.5Q469 443 498.5 385.5Q528 328 528 246Q528 165 498.5 107.0Q469 49 420.5 18.5Q372 -12 315 -12Q257 -12 217.0 11.5Q177 35 154 75V-161ZM293 60Q357 60 395.5 109.0Q434 158 434 246Q434 335 395.5 383.5Q357 432 293 432Q229 432 190.5 383.5Q152 335 152 246Q152 158 190.5 109.0Q229 60 293 60Z"/><path fill="#effcff" transform="translate(1016.166 532) scale(0.022000 -0.022000)" d="M281 -12Q203 -12 149.0 22.5Q95 57 66.5 115.5Q38 174 38 247Q38 326 70.0 383.5Q102 441 156.5 472.5Q211 504 279 504Q338 504 383.0 480.5Q428 457 457.5 417.5Q487 378 500.5 328.0Q514 278 510 225H128Q130 163 155.5 127.0Q181 91 216.0 76.5Q251 62 281 62Q323 62 351.5 75.5Q380 89 397 111L478 87Q451 44 401.0 16.0Q351 -12 281 -12ZM129 292H421Q421 327 403.5 359.0Q386 391 354.5 411.5Q323 432 279 432Q242 432 209.0 418.0Q176 404 154.5 373.0Q133 342 129 292Z"/><path fill="#9ab8c3" transform="translate(982.000 563) scale(0.019000 -0.019000)" d="M137 0 162 172H38L49 253H173L196 415H72L83 496H207L231 668H313L289 496H412L436 668H518L494 496H617L606 415H482L460 253H583L572 172H448L424 0H342L366 172H243L219 0ZM255 253H378L400 415H277Z"/><path fill="#9ab8c3" transform="translate(994.445 563) scale(0.019000 -0.019000)" d="M76 0V668H529V587H170V384H435V303H170V81H529V0Z"/><path fill="#9ab8c3" transform="translate(1005.218 563) scale(0.019000 -0.019000)" d="M76 0V668H510V587H170V384H510V303H170V0Z"/><path fill="#9ab8c3" transform="translate(1015.630 563) scale(0.019000 -0.019000)" d="M76 0V668H510V587H170V384H510V303H170V0Z"/><path fill="#9ab8c3" transform="translate(1026.042 563) scale(0.019000 -0.019000)" d="M353 -12Q258 -12 190.0 32.5Q122 77 86.0 155.0Q50 233 50 335Q50 439 88.5 516.5Q127 594 197.0 637.0Q267 680 361 680Q445 680 512.5 641.0Q580 602 614 529L532 499Q510 544 465.5 572.5Q421 601 356 601Q297 601 249.5 571.0Q202 541 174.0 481.5Q146 422 146 335Q146 251 173.0 191.0Q200 131 248.5 99.0Q297 67 359 67Q424 67 468.5 95.0Q513 123 536 169L618 139Q582 65 512.0 26.5Q442 -12 353 -12Z"/><path fill="#9ab8c3" transform="translate(1038.506 563) scale(0.019000 -0.019000)" d="M76 0V668H510V587H170V384H510V303H170V0Z"/><path fill="#9ab8c3" transform="translate(1048.918 563) scale(0.019000 -0.019000)" d="M76 0V668H510V587H170V384H510V303H170V0Z"/><path fill="#9ab8c3" transform="translate(52.000 614) scale(0.021000 -0.021000)" d="M363 -12Q267 -12 197.0 32.5Q127 77 88.5 155.5Q50 234 50 335Q50 436 88.5 513.5Q127 591 197.0 635.5Q267 680 363 680Q460 680 530.0 635.5Q600 591 638.5 513.5Q677 436 677 335Q677 234 638.5 155.5Q600 77 530.0 32.5Q460 -12 363 -12ZM363 67Q424 67 473.5 98.0Q523 129 552.0 188.5Q581 248 581 335Q581 421 552.0 480.5Q523 540 473.5 570.5Q424 601 363 601Q303 601 253.5 570.5Q204 540 175.0 480.5Q146 421 146 335Q146 248 175.0 188.5Q204 129 253.5 98.0Q303 67 363 67Z"/><path fill="#9ab8c3" transform="translate(67.267 614) scale(0.021000 -0.021000)" d="M0 0 181 255 9 496H108L230 324L353 496H452L280 255L461 0H362L230 185L99 0Z"/><path fill="#9ab8c3" transform="translate(76.948 614) scale(0.021000 -0.021000)" d="M209 -12Q162 -12 123.0 5.0Q84 22 61.0 54.0Q38 86 38 131Q38 190 79.5 224.0Q121 258 196.5 276.5Q272 295 373 306Q375 369 348.0 403.0Q321 437 261 437Q216 437 187.5 416.5Q159 396 151 360L70 384Q90 441 141.5 472.5Q193 504 260 504Q363 504 410.5 455.5Q458 407 458 303V187Q458 125 463.0 80.0Q468 35 475 0H398L378 68Q356 31 315.0 9.5Q274 -12 209 -12ZM227 55Q266 55 301.0 69.0Q336 83 358.0 116.5Q380 150 380 208V239Q304 231 248.0 219.5Q192 208 161.5 187.5Q131 167 131 133Q131 98 156.5 76.5Q182 55 227 55Z"/><path fill="#9ab8c3" transform="translate(87.994 614) scale(0.021000 -0.021000)" d="M70 0V496H132L154 421Q175 456 213.0 480.0Q251 504 314 504Q404 504 441.0 451.5Q478 399 478 314V0H394V289Q394 327 387.0 359.5Q380 392 356.5 412.0Q333 432 285 432Q224 432 189.0 390.5Q154 349 154 269V0Z"/><path fill="#9ab8c3" transform="translate(99.460 614) scale(0.021000 -0.021000)" d="M156 590Q131 590 112.5 608.5Q94 627 94 653Q94 679 112.5 697.0Q131 715 156 715Q182 715 200.5 697.0Q219 679 219 653Q219 627 200.5 608.5Q182 590 156 590ZM114 0V429H45V496H198V0Z"/><path fill="#9ab8c3" transform="translate(105.298 614) scale(0.021000 -0.021000)" d="M227 -12Q169 -12 134.0 12.5Q99 37 83.5 80.5Q68 124 68 180V497H152V200Q152 145 165.0 115.0Q178 85 201.5 73.5Q225 62 256 62Q315 62 348.5 103.5Q382 145 382 224V497H466V0H403L382 72Q361 36 325.0 12.0Q289 -12 227 -12Z"/><path fill="#9ab8c3" transform="translate(116.554 614) scale(0.021000 -0.021000)" d="M70 0V496H132L154 421Q175 456 211.5 480.0Q248 504 303 504Q360 504 395.0 481.0Q430 458 446 417Q476 463 518.5 483.5Q561 504 613 504Q699 504 736.0 451.5Q773 399 773 314V0H689V289Q689 327 681.5 359.5Q674 392 651.5 412.0Q629 432 583 432Q529 432 496.5 390.5Q464 349 464 269V0H380V289Q380 327 372.5 359.5Q365 392 342.5 412.0Q320 432 274 432Q220 432 187.0 390.5Q154 349 154 269V0Z"/><path fill="#9ab8c3" transform="translate(134.215 614) scale(0.021000 -0.021000)" d=""/><path fill="#9ab8c3" transform="translate(140.095 614) scale(0.021000 -0.021000)" d="M15 0 275 668H362L102 0Z"/><path fill="#9ab8c3" transform="translate(148.012 614) scale(0.021000 -0.021000)" d=""/><path fill="#9ab8c3" transform="translate(153.892 614) scale(0.021000 -0.021000)" d="M251 -12Q195 -12 146.0 18.5Q97 49 67.5 106.5Q38 164 38 246Q38 328 67.5 385.5Q97 443 146.0 473.5Q195 504 251 504Q310 504 350.0 480.5Q390 457 412 418V668H496V187Q496 162 498.0 113.5Q500 65 513 0H434L412 75Q390 35 350.0 11.5Q310 -12 251 -12ZM273 60Q337 60 375.5 109.0Q414 158 414 246Q414 335 375.5 383.5Q337 432 273 432Q209 432 170.5 383.5Q132 335 132 246Q132 158 170.5 109.0Q209 60 273 60Z"/><path fill="#9ab8c3" transform="translate(165.736 614) scale(0.021000 -0.021000)" d="M156 590Q131 590 112.5 608.5Q94 627 94 653Q94 679 112.5 697.0Q131 715 156 715Q182 715 200.5 697.0Q219 679 219 653Q219 627 200.5 608.5Q182 590 156 590ZM114 0V429H45V496H198V0Z"/><path fill="#9ab8c3" transform="translate(171.574 614) scale(0.021000 -0.021000)" d="M239 -12Q196 -12 154.5 1.5Q113 15 80.5 42.5Q48 70 31 112L112 142Q123 98 160.5 78.5Q198 59 239 59Q269 59 295.5 68.0Q322 77 339.0 94.0Q356 111 356 133Q356 174 323.5 191.0Q291 208 246 217L177 231Q141 239 110.0 253.5Q79 268 60.0 295.0Q41 322 41 367Q41 412 69.0 442.5Q97 473 140.5 489.0Q184 505 232 505Q291 505 343.5 480.5Q396 456 418 404L339 375Q326 405 293.5 419.5Q261 434 226 434Q188 434 157.0 417.0Q126 400 126 368Q126 336 152.5 321.5Q179 307 218 299L283 286Q323 278 359.0 263.0Q395 248 418.0 218.5Q441 189 441 136Q441 89 412.0 56.0Q383 23 337.0 5.5Q291 -12 239 -12Z"/><path fill="#9ab8c3" transform="translate(181.465 614) scale(0.021000 -0.021000)" d="M70 -161V496H131L154 418Q177 457 217.0 480.5Q257 504 315 504Q372 504 420.5 473.5Q469 443 498.5 385.5Q528 328 528 246Q528 165 498.5 107.0Q469 49 420.5 18.5Q372 -12 315 -12Q257 -12 217.0 11.5Q177 35 154 75V-161ZM293 60Q357 60 395.5 109.0Q434 158 434 246Q434 335 395.5 383.5Q357 432 293 432Q229 432 190.5 383.5Q152 335 152 246Q152 158 190.5 109.0Q229 60 293 60Z"/><path fill="#9ab8c3" transform="translate(193.351 614) scale(0.021000 -0.021000)" d="M187 0Q140 0 114.5 9.5Q89 19 79.5 46.0Q70 73 70 124V667H154V138Q154 100 162.0 87.0Q170 74 205 74H224V0Z"/><path fill="#9ab8c3" transform="translate(198.370 614) scale(0.021000 -0.021000)" d="M209 -12Q162 -12 123.0 5.0Q84 22 61.0 54.0Q38 86 38 131Q38 190 79.5 224.0Q121 258 196.5 276.5Q272 295 373 306Q375 369 348.0 403.0Q321 437 261 437Q216 437 187.5 416.5Q159 396 151 360L70 384Q90 441 141.5 472.5Q193 504 260 504Q363 504 410.5 455.5Q458 407 458 303V187Q458 125 463.0 80.0Q468 35 475 0H398L378 68Q356 31 315.0 9.5Q274 -12 209 -12ZM227 55Q266 55 301.0 69.0Q336 83 358.0 116.5Q380 150 380 208V239Q304 231 248.0 219.5Q192 208 161.5 187.5Q131 167 131 133Q131 98 156.5 76.5Q182 55 227 55Z"/><path fill="#9ab8c3" transform="translate(209.416 614) scale(0.021000 -0.021000)" d="M37 -161V-87H71Q107 -87 126.0 -81.5Q145 -76 156.5 -57.5Q168 -39 179 -1L0 495H93L215 113L337 495H429L253 -22Q235 -75 216.5 -105.5Q198 -136 167.0 -148.5Q136 -161 80 -161Z"/><path fill="#9ab8c3" transform="translate(218.425 614) scale(0.021000 -0.021000)" d=""/><path fill="#9ab8c3" transform="translate(224.305 614) scale(0.021000 -0.021000)" d=""/><path fill="#9ab8c3" transform="translate(230.185 614) scale(0.021000 -0.021000)" d=""/><path fill="#9ab8c3" transform="translate(236.065 614) scale(0.021000 -0.021000)" d=""/><path fill="#9ab8c3" transform="translate(241.945 614) scale(0.021000 -0.021000)" d=""/><path fill="#9ab8c3" transform="translate(247.825 614) scale(0.021000 -0.021000)" d="M10 0 261 669H366L616 0H516L465 146H161L110 0ZM190 227H436L313 574Z"/><path fill="#9ab8c3" transform="translate(260.971 614) scale(0.021000 -0.021000)" d="M221 0Q174 0 148.5 9.5Q123 19 113.5 46.0Q104 73 104 124V429H20V496H104V621H188V496H284V429H188V138Q188 100 195.5 87.0Q203 74 239 74H284V0Z"/><path fill="#9ab8c3" transform="translate(267.775 614) scale(0.021000 -0.021000)" d="M70 0V668H154V273L354 496H455L268 291L480 0H377L212 229L154 166V0Z"/><path fill="#9ab8c3" transform="translate(278.065 614) scale(0.021000 -0.021000)" d="M156 590Q131 590 112.5 608.5Q94 627 94 653Q94 679 112.5 697.0Q131 715 156 715Q182 715 200.5 697.0Q219 679 219 653Q219 627 200.5 608.5Q182 590 156 590ZM114 0V429H45V496H198V0Z"/><path fill="#9ab8c3" transform="translate(283.903 614) scale(0.021000 -0.021000)" d="M70 0V496H132L154 421Q175 456 213.0 480.0Q251 504 314 504Q404 504 441.0 451.5Q478 399 478 314V0H394V289Q394 327 387.0 359.5Q380 392 356.5 412.0Q333 432 285 432Q224 432 189.0 390.5Q154 349 154 269V0Z"/><path fill="#9ab8c3" transform="translate(295.369 614) scale(0.021000 -0.021000)" d="M239 -12Q196 -12 154.5 1.5Q113 15 80.5 42.5Q48 70 31 112L112 142Q123 98 160.5 78.5Q198 59 239 59Q269 59 295.5 68.0Q322 77 339.0 94.0Q356 111 356 133Q356 174 323.5 191.0Q291 208 246 217L177 231Q141 239 110.0 253.5Q79 268 60.0 295.0Q41 322 41 367Q41 412 69.0 442.5Q97 473 140.5 489.0Q184 505 232 505Q291 505 343.5 480.5Q396 456 418 404L339 375Q326 405 293.5 419.5Q261 434 226 434Q188 434 157.0 417.0Q126 400 126 368Q126 336 152.5 321.5Q179 307 218 299L283 286Q323 278 359.0 263.0Q395 248 418.0 218.5Q441 189 441 136Q441 89 412.0 56.0Q383 23 337.0 5.5Q291 -12 239 -12Z"/><path fill="#9ab8c3" transform="translate(305.260 614) scale(0.021000 -0.021000)" d="M276 -12Q233 -12 191.0 3.0Q149 18 114.5 49.5Q80 81 59.0 130.0Q38 179 38 246Q38 313 59.0 362.0Q80 411 114.5 442.5Q149 474 191.0 489.0Q233 504 276 504Q319 504 361.5 489.0Q404 474 438.5 442.5Q473 411 493.5 362.0Q514 313 514 246Q514 179 493.5 130.0Q473 81 438.5 49.5Q404 18 361.5 3.0Q319 -12 276 -12ZM276 62Q312 62 346.0 81.5Q380 101 402.0 141.5Q424 182 424 246Q424 310 402.0 350.5Q380 391 346.0 410.5Q312 430 276 430Q241 430 206.5 410.5Q172 391 150.0 350.5Q128 310 128 246Q128 182 150.0 141.5Q172 101 206.5 81.5Q241 62 276 62Z"/><path fill="#9ab8c3" transform="translate(316.852 614) scale(0.021000 -0.021000)" d="M70 0V496H132L154 421Q175 456 213.0 480.0Q251 504 314 504Q404 504 441.0 451.5Q478 399 478 314V0H394V289Q394 327 387.0 359.5Q380 392 356.5 412.0Q333 432 285 432Q224 432 189.0 390.5Q154 349 154 269V0Z"/><path fill="#9ab8c3" transform="translate(328.318 614) scale(0.021000 -0.021000)" d=""/><path fill="#9ab8c3" transform="translate(334.198 614) scale(0.021000 -0.021000)" d="M76 0V668H170V384H520V668H614V0H520V303H170V0Z"/><path fill="#9ab8c3" transform="translate(348.688 614) scale(0.021000 -0.021000)" d="M37 -161V-87H71Q107 -87 126.0 -81.5Q145 -76 156.5 -57.5Q168 -39 179 -1L0 495H93L215 113L337 495H429L253 -22Q235 -75 216.5 -105.5Q198 -136 167.0 -148.5Q136 -161 80 -161Z"/><path fill="#9ab8c3" transform="translate(357.697 614) scale(0.021000 -0.021000)" d="M70 -161V496H131L154 418Q177 457 217.0 480.5Q257 504 315 504Q372 504 420.5 473.5Q469 443 498.5 385.5Q528 328 528 246Q528 165 498.5 107.0Q469 49 420.5 18.5Q372 -12 315 -12Q257 -12 217.0 11.5Q177 35 154 75V-161ZM293 60Q357 60 395.5 109.0Q434 158 434 246Q434 335 395.5 383.5Q357 432 293 432Q229 432 190.5 383.5Q152 335 152 246Q152 158 190.5 109.0Q229 60 293 60Z"/><path fill="#9ab8c3" transform="translate(369.583 614) scale(0.021000 -0.021000)" d="M281 -12Q203 -12 149.0 22.5Q95 57 66.5 115.5Q38 174 38 247Q38 326 70.0 383.5Q102 441 156.5 472.5Q211 504 279 504Q338 504 383.0 480.5Q428 457 457.5 417.5Q487 378 500.5 328.0Q514 278 510 225H128Q130 163 155.5 127.0Q181 91 216.0 76.5Q251 62 281 62Q323 62 351.5 75.5Q380 89 397 111L478 87Q451 44 401.0 16.0Q351 -12 281 -12ZM129 292H421Q421 327 403.5 359.0Q386 391 354.5 411.5Q323 432 279 432Q242 432 209.0 418.0Q176 404 154.5 373.0Q133 342 129 292Z"/><path fill="#9ab8c3" transform="translate(380.902 614) scale(0.021000 -0.021000)" d="M70 0V496H131L158 404Q184 449 228.5 476.5Q273 504 335 504V417Q328 417 320.5 417.0Q313 417 306 416Q221 409 187.5 357.0Q154 305 154 213V0Z"/><path fill="#9ab8c3" transform="translate(388.042 614) scale(0.021000 -0.021000)" d="M187 0Q140 0 114.5 9.5Q89 19 79.5 46.0Q70 73 70 124V667H154V138Q154 100 162.0 87.0Q170 74 205 74H224V0Z"/><path fill="#9ab8c3" transform="translate(393.061 614) scale(0.021000 -0.021000)" d="M281 -12Q203 -12 149.0 22.5Q95 57 66.5 115.5Q38 174 38 247Q38 326 70.0 383.5Q102 441 156.5 472.5Q211 504 279 504Q338 504 383.0 480.5Q428 457 457.5 417.5Q487 378 500.5 328.0Q514 278 510 225H128Q130 163 155.5 127.0Q181 91 216.0 76.5Q251 62 281 62Q323 62 351.5 75.5Q380 89 397 111L478 87Q451 44 401.0 16.0Q351 -12 281 -12ZM129 292H421Q421 327 403.5 359.0Q386 391 354.5 411.5Q323 432 279 432Q242 432 209.0 418.0Q176 404 154.5 373.0Q133 342 129 292Z"/><path fill="#9ab8c3" transform="translate(404.380 614) scale(0.021000 -0.021000)" d="M274 -192Q234 -192 194.5 -180.5Q155 -169 124.5 -143.0Q94 -117 81 -76L165 -53Q179 -92 211.0 -105.0Q243 -118 274 -118Q351 -118 378.5 -81.0Q406 -44 406 28V94Q383 55 345.0 32.0Q307 9 248 9Q193 9 145.0 37.5Q97 66 67.5 121.5Q38 177 38 256Q38 336 67.5 391.0Q97 446 145.0 475.0Q193 504 248 504Q307 504 345.0 480.5Q383 457 406 418L429 496H490V47Q490 -71 442.5 -131.5Q395 -192 274 -192ZM269 79Q307 79 338.5 97.0Q370 115 389.5 154.0Q409 193 409 256Q409 319 389.5 358.0Q370 397 338.5 414.5Q307 432 269 432Q208 432 168.5 386.5Q129 341 129 256Q129 171 168.5 125.0Q208 79 269 79Z"/><path fill="#9ab8c3" transform="translate(416.140 614) scale(0.021000 -0.021000)" d="M156 590Q131 590 112.5 608.5Q94 627 94 653Q94 679 112.5 697.0Q131 715 156 715Q182 715 200.5 697.0Q219 679 219 653Q219 627 200.5 608.5Q182 590 156 590ZM114 0V429H45V496H198V0Z"/><path fill="#9ab8c3" transform="translate(421.978 614) scale(0.021000 -0.021000)" d="M315 -12Q257 -12 217.0 11.5Q177 35 154 75L132 0H70V668H154V418Q177 457 217.0 480.5Q257 504 315 504Q372 504 420.5 473.5Q469 443 498.5 385.5Q528 328 528 246Q528 164 498.5 106.5Q469 49 420.5 18.5Q372 -12 315 -12ZM293 60Q357 60 395.5 109.0Q434 158 434 246Q434 335 395.5 383.5Q357 432 293 432Q229 432 190.5 383.5Q152 335 152 246Q152 158 190.5 109.0Q229 60 293 60Z"/><path fill="#9ab8c3" transform="translate(433.864 614) scale(0.021000 -0.021000)" d="M187 0Q140 0 114.5 9.5Q89 19 79.5 46.0Q70 73 70 124V667H154V138Q154 100 162.0 87.0Q170 74 205 74H224V0Z"/><path fill="#9ab8c3" transform="translate(438.883 614) scale(0.021000 -0.021000)" d="M281 -12Q203 -12 149.0 22.5Q95 57 66.5 115.5Q38 174 38 247Q38 326 70.0 383.5Q102 441 156.5 472.5Q211 504 279 504Q338 504 383.0 480.5Q428 457 457.5 417.5Q487 378 500.5 328.0Q514 278 510 225H128Q130 163 155.5 127.0Q181 91 216.0 76.5Q251 62 281 62Q323 62 351.5 75.5Q380 89 397 111L478 87Q451 44 401.0 16.0Q351 -12 281 -12ZM129 292H421Q421 327 403.5 359.0Q386 391 354.5 411.5Q323 432 279 432Q242 432 209.0 418.0Q176 404 154.5 373.0Q133 342 129 292Z"/><path fill="#9ab8c3" transform="translate(450.202 614) scale(0.021000 -0.021000)" d=""/><path fill="#9ab8c3" transform="translate(456.082 614) scale(0.021000 -0.021000)" d="M15 0 275 668H362L102 0Z"/><path fill="#9ab8c3" transform="translate(463.999 614) scale(0.021000 -0.021000)" d=""/><path fill="#9ab8c3" transform="translate(469.879 614) scale(0.021000 -0.021000)" d="M70 0V496H131L158 404Q184 449 228.5 476.5Q273 504 335 504V417Q328 417 320.5 417.0Q313 417 306 416Q221 409 187.5 357.0Q154 305 154 213V0Z"/><path fill="#9ab8c3" transform="translate(477.019 614) scale(0.021000 -0.021000)" d="M281 -12Q203 -12 149.0 22.5Q95 57 66.5 115.5Q38 174 38 247Q38 326 70.0 383.5Q102 441 156.5 472.5Q211 504 279 504Q338 504 383.0 480.5Q428 457 457.5 417.5Q487 378 500.5 328.0Q514 278 510 225H128Q130 163 155.5 127.0Q181 91 216.0 76.5Q251 62 281 62Q323 62 351.5 75.5Q380 89 397 111L478 87Q451 44 401.0 16.0Q351 -12 281 -12ZM129 292H421Q421 327 403.5 359.0Q386 391 354.5 411.5Q323 432 279 432Q242 432 209.0 418.0Q176 404 154.5 373.0Q133 342 129 292Z"/><path fill="#9ab8c3" transform="translate(488.338 614) scale(0.021000 -0.021000)" d="M209 -12Q162 -12 123.0 5.0Q84 22 61.0 54.0Q38 86 38 131Q38 190 79.5 224.0Q121 258 196.5 276.5Q272 295 373 306Q375 369 348.0 403.0Q321 437 261 437Q216 437 187.5 416.5Q159 396 151 360L70 384Q90 441 141.5 472.5Q193 504 260 504Q363 504 410.5 455.5Q458 407 458 303V187Q458 125 463.0 80.0Q468 35 475 0H398L378 68Q356 31 315.0 9.5Q274 -12 209 -12ZM227 55Q266 55 301.0 69.0Q336 83 358.0 116.5Q380 150 380 208V239Q304 231 248.0 219.5Q192 208 161.5 187.5Q131 167 131 133Q131 98 156.5 76.5Q182 55 227 55Z"/><path fill="#9ab8c3" transform="translate(499.384 614) scale(0.021000 -0.021000)" d="M251 -12Q195 -12 146.0 18.5Q97 49 67.5 106.5Q38 164 38 246Q38 328 67.5 385.5Q97 443 146.0 473.5Q195 504 251 504Q310 504 350.0 480.5Q390 457 412 418V668H496V187Q496 162 498.0 113.5Q500 65 513 0H434L412 75Q390 35 350.0 11.5Q310 -12 251 -12ZM273 60Q337 60 375.5 109.0Q414 158 414 246Q414 335 375.5 383.5Q337 432 273 432Q209 432 170.5 383.5Q132 335 132 246Q132 158 170.5 109.0Q209 60 273 60Z"/><path fill="#9ab8c3" transform="translate(511.228 614) scale(0.021000 -0.021000)" d="M156 590Q131 590 112.5 608.5Q94 627 94 653Q94 679 112.5 697.0Q131 715 156 715Q182 715 200.5 697.0Q219 679 219 653Q219 627 200.5 608.5Q182 590 156 590ZM114 0V429H45V496H198V0Z"/><path fill="#9ab8c3" transform="translate(517.066 614) scale(0.021000 -0.021000)" d="M70 0V496H132L154 421Q175 456 213.0 480.0Q251 504 314 504Q404 504 441.0 451.5Q478 399 478 314V0H394V289Q394 327 387.0 359.5Q380 392 356.5 412.0Q333 432 285 432Q224 432 189.0 390.5Q154 349 154 269V0Z"/><path fill="#9ab8c3" transform="translate(528.532 614) scale(0.021000 -0.021000)" d="M274 -192Q234 -192 194.5 -180.5Q155 -169 124.5 -143.0Q94 -117 81 -76L165 -53Q179 -92 211.0 -105.0Q243 -118 274 -118Q351 -118 378.5 -81.0Q406 -44 406 28V94Q383 55 345.0 32.0Q307 9 248 9Q193 9 145.0 37.5Q97 66 67.5 121.5Q38 177 38 256Q38 336 67.5 391.0Q97 446 145.0 475.0Q193 504 248 504Q307 504 345.0 480.5Q383 457 406 418L429 496H490V47Q490 -71 442.5 -131.5Q395 -192 274 -192ZM269 79Q307 79 338.5 97.0Q370 115 389.5 154.0Q409 193 409 256Q409 319 389.5 358.0Q370 397 338.5 414.5Q307 432 269 432Q208 432 168.5 386.5Q129 341 129 256Q129 171 168.5 125.0Q208 79 269 79Z"/></svg>
